<svg id="red_rum_shirt_black_print_Image" data-name="red rum shirt black print Image" xmlns="http://www.w3.org/2000/svg" xmlns:xlink="http://www.w3.org/1999/xlink" viewBox="0 0 604.81 180.83"><defs><style>.cls-1,.cls-2,.cls-3{stroke:red;stroke-miterlimit:10;stroke-width:3px;}.cls-1{fill:url(#linear-gradient);}.cls-2{fill:url(#linear-gradient-2);}.cls-3{fill:url(#linear-gradient-3);}</style><linearGradient id="linear-gradient" x1="459.6" y1="191.38" x2="459.6" y2="14.26" gradientUnits="userSpaceOnUse"><stop offset="0" stop-color="red"/><stop offset="0.07" stop-color="#ff1f1f"/><stop offset="0.21" stop-color="#ff5959"/><stop offset="0.36" stop-color="#ff8c8c"/><stop offset="0.5" stop-color="#ffb5b5"/><stop offset="0.64" stop-color="#ffd5d5"/><stop offset="0.77" stop-color="#ffecec"/><stop offset="0.89" stop-color="snow"/><stop offset="1" stop-color="#fff"/></linearGradient><linearGradient id="linear-gradient-2" x1="202.83" y1="190.54" x2="202.83" y2="14.67" xlink:href="#linear-gradient"/><linearGradient id="linear-gradient-3" x1="63.15" y1="190.2" x2="63.15" y2="14.67" xlink:href="#linear-gradient"/></defs><title>redRum - Logo</title><path class="cls-1" d="M546.15,14.87c-3.93,2.93-8.07,5.17-12,7.66.55,2.1,14.3,33.38,16.94,38.59a6.43,6.43,0,0,0,.7.9c7.12-15.94,14.15-31.69,21.23-47.56a14,14,0,0,1,1.6-.2h37a18.37,18.37,0,0,1,1.88.21,9.14,9.14,0,0,1-2.54,1.8c-.88.55-1.78,1.06-2.68,1.58l-2.48,1.47c-.89.53-1.79,1.05-2.68,1.59s-1.62,1-2.51,1.56V191.38a25.25,25.25,0,0,1-4-1.94c-7.14-4.12-14.23-8.31-21.37-12.41a2.87,2.87,0,0,1-1.59-2.89c.05-6.56,0-13.12,0-19.68V80.38c-.85.29-1,1-1.21,1.46q-6.83,14-13.63,28.05c-2,4-3.91,8.06-5.87,12.08-.35.72-.72,1.41-1.17,2.28a34.37,34.37,0,0,1-3-5.58c-.92-1.78-1.76-3.59-2.64-5.39l-2.73-5.61-2.72-5.61c-.87-1.8-1.75-3.6-2.62-5.39s-1.81-3.75-2.72-5.62-1.73-3.6-2.63-5.39-1.7-3.75-2.76-5.5c-.67.22-.51.69-.51,1,0,3.84,0,7.68,0,11.52q0,48,0,96v2.67c-2.05-.81-20-11-26.72-15.2a2.26,2.26,0,0,1-.13-.2.86.86,0,0,1-.05-.23,1,1,0,0,1,0-.24c0-.08,0-.16,0-.24V175c0-.16,0-.32,0-.48V17.13c0-.08,0-.16,0-.24a2,2,0,0,0,0-.24c0-.07-.05-.15-.12-.34a2.41,2.41,0,0,0-.85.15c-4.23,2.43-8.45,4.88-12.79,7.4,0,.78-.07,1.57-.07,2.35q0,7.56,0,15.12,0,57.6,0,115.19a24.61,24.61,0,0,1-.89,7.35,17.15,17.15,0,0,1-5.52,8.54,12.08,12.08,0,0,1-7.48,2.83c-.8,0-1.6,0-2.4,0H417.59a12.84,12.84,0,0,1-11-6.15,20.48,20.48,0,0,1-3.24-10.66c0-.88,0-1.76,0-2.64q0-58.92,0-117.83c0-6.4-.06-12.79-.11-19.19,0-.55-.05-1.09-.09-1.8a12,12,0,0,0-3.48,1.71c-1.2.65-2.36,1.35-3.54,2l-3.42,2c0,9.32,0,18.58,0,27.85s0,18.56,0,27.84V189.88c-.74.54-1.17,0-1.61-.24l-16.64-9.56-9.34-5.39a8.45,8.45,0,0,1-.2-2.9q0-37,0-73.91V95a3.92,3.92,0,0,0-1-.31q-9.48,0-19,0a3.94,3.94,0,0,0-.61.15,10.43,10.43,0,0,0-.47,1.46q-2.47,14.79-4.93,29.57-2.28,13.72-4.59,27.44a25.18,25.18,0,0,0-.36,7.4,13.88,13.88,0,0,0,6.94,10.66c1.15.69,2.38,1.24,3.58,1.85-.21.78-.8.44-1.18.44q-11,0-22.08,0h-13a4.27,4.27,0,0,1-2.34-.28,3.92,3.92,0,0,1,.05-2.35q3.54-22,7.1-44,2.91-18.1,5.83-36.23c0-.24.12-.47.13-.71a3.11,3.11,0,0,1,1.73-2.65c1.86-1.11,3.63-2.35,5.42-3.55.46-.3.88-.65,1.46-1.09a14,14,0,0,0-1.25-1.16q-5.73-4.16-11.49-8.28l-2.76-2c-.05-.63-.12-1.26-.12-1.89,0-13-.08-26.08,0-39.12,0-5.41,2.51-9.84,6.55-13.36a8.56,8.56,0,0,1,5.51-2.09l1.44,0,84.71-.06h27.83a6.18,6.18,0,0,1,2.52.22c-.23.62-.72.48-1.06.61s-.77.21-1.15.35c-1.86.71-3.72,1.44-5.57,2.17a1.58,1.58,0,0,0-1.06,1.7c0,.64,0,1.28,0,1.92q0,66.24,0,132.47a7.29,7.29,0,0,0,.24,3c1.93.31,25.22.35,27.77,0a9.72,9.72,0,0,0,.23-1.28c0-.8,0-1.6,0-2.4V18.19c0-1,0-2.05.05-3.18.6-.12,1-.23,1.49-.29a7.69,7.69,0,0,1,1,0h81.83C544.94,14.72,545.54,14.81,546.15,14.87ZM337.49,31c0,.92-.07,1.7-.08,2.49V43.51c0,6.15,0,12.3,0,18.46a3.09,3.09,0,0,0,.48,2.41,10.08,10.08,0,0,0,8.56-4.26,12.21,12.21,0,0,0,2-4.59c.31-1.48.45-3,.68-4.5.09-.59-.06-1.26.46-1.8.12.19.24.3.25.42a47.84,47.84,0,0,1-.19,11.47c-.77,4.81-1.6,9.62-2.38,14.42a6.52,6.52,0,0,0-.16,2.93,9.43,9.43,0,0,0,1.37.2q7.44,0,14.87,0a8.54,8.54,0,0,0,1.5-.28V52.91c0-6.48,0-12.95,0-19.42a5.67,5.67,0,0,0-.21-2.53C362.64,30.64,340,30.61,337.49,31Z" transform="translate(-11.7 -12.76)"/><path class="cls-2" d="M246.11,153.68a3.76,3.76,0,0,0,.8.16q12.84,0,25.68,0a2.85,2.85,0,0,0,.74-.24,5.42,5.42,0,0,0,.19-.89c0-.8,0-1.6,0-2.4q0-57.6,0-115.2c0-3-.11-5.92-.11-8.88,0-3.35.07-6.71.13-10.07a10.32,10.32,0,0,1,.17-1.28c.67-.06,1.29-.16,1.92-.16,3.76,0,7.52,0,11.28,0a12.22,12.22,0,0,1,9.68,4.48,19.38,19.38,0,0,1,4.75,12.53c0,.56,0,1.12,0,1.68q0,59.64,0,119.27a26,26,0,0,1-.88,7.36,17.18,17.18,0,0,1-4.76,7.93,12.11,12.11,0,0,1-8.23,3.39c-.72,0-1.44,0-2.16,0H221a8.39,8.39,0,0,1-2.92-.22,11.06,11.06,0,0,1-.15-1.19c0-.8,0-1.6,0-2.4V36.7c0-.8,0-1.6,0-2.4a12.33,12.33,0,0,0-2-7.26,21.79,21.79,0,0,0-7.85-7.59,17,17,0,0,0-4.72-2.14c-.67.55-.48,1.24-.49,1.84q-.12,7.08-.18,14.16-.15,19.92-.29,39.84A6.78,6.78,0,0,1,202,76c-1.59-2-3-4-4.51-5.78s-3-3.51-4.65-5.16-3.44-3.36-5.25-4.93-3.57-3-5.44-4.33-4-2.72-6-4-4-2.25-6-3.37c0-.56.43-.37.68-.43a4.28,4.28,0,0,1,.72,0c3.13-.29,3.92-1.05,4.07-4.15.08-1.68,0-3.36,0-5,0-2.08,0-4.16-.05-6.24,0-.54-.07-1.09-.11-1.61a2.77,2.77,0,0,0-.76-.28q-12,0-24,0a2.17,2.17,0,0,0-.67.24,3.14,3.14,0,0,0-.2.69q0,17.4,0,34.8a3,3,0,0,0,.22.76,11.6,11.6,0,0,0,3.06-.08,34,34,0,0,1,11,.74,16.91,16.91,0,0,1,8.81,5A14.87,14.87,0,0,1,177,83.77a24,24,0,0,1-2.15,9c-.06.12-.22.2-.47.43-.15-.83-.3-1.58-.4-2.32a8.48,8.48,0,0,0-5.49-7,16.89,16.89,0,0,0-5.36-1.25,47.84,47.84,0,0,0-12.18.73c-.31.06-.6.17-1,.28-.06.48-.15.94-.17,1.41-.27,9.82-.11,68.75.2,71.13a5.3,5.3,0,0,0,1.08.22q13.08,0,26.16,0a5.44,5.44,0,0,0,.85-.14,8.34,8.34,0,0,0,.29-1.52c.12-5.68.23-11.36.29-17a16,16,0,0,0-.36-3.08,3.21,3.21,0,0,0-2.89-2.79c-.71-.1-1.42-.22-2.33-.37.24-.32.35-.59.56-.72,6.4-4,11.63-9.24,16.45-15a105.53,105.53,0,0,0,14.34-22.07c.26-.54.58-1.06.9-1.64.2.25.38.36.38.48q-.1,40.56-.23,81.11a4.78,4.78,0,0,1-.18.9,3.78,3.78,0,0,1-.74.23c-2.48.09-5,.24-7.43.24q-22.92,0-45.84,0a8.94,8.94,0,0,0-4.75,1.27c-8.08,4.72-16.2,9.37-24.31,14a3.17,3.17,0,0,1-.56.16,4.85,4.85,0,0,1-.17-2q0-14.52,0-29c0-23,0-46.08,0-69.12a8.49,8.49,0,0,0-2.33-6,19,19,0,0,0-7-4.94c-2-.81-4.08-1.36-6.13-2a9.13,9.13,0,0,1-1.74-.69c5.64-.16,11.27-.12,16.85-.15a4.32,4.32,0,0,0,.28-.92c0-17.67,0-35.35,0-53.13-.51-.35-1-.74-1.54-1.05-3-1.73-6-3.43-8.94-5.15-.53-.31-1-.66-1.83-1.18a6.44,6.44,0,0,1,1.16-.32c.8,0,1.6,0,2.4,0l130.32,0c3.52,0,7-.11,10.56,0A18.18,18.18,0,0,1,270.75,28.6a22.75,22.75,0,0,1-.13,10c-.36,1.64-.9,3.23-1.39,4.84a12.22,12.22,0,0,1-.76,1.49c-.07-1.13-.09-1.73-.14-2.33-.41-5.37-3.31-8.69-8.57-9.84a26.63,26.63,0,0,0-8.11-.42,23.09,23.09,0,0,0-5.6.82l-.17.29a.6.6,0,0,0-.09.22q0,58.92,0,117.83,0,.72,0,1.44a1.82,1.82,0,0,0,.11.46A1.89,1.89,0,0,0,246.11,153.68Z" transform="translate(-11.7 -12.76)"/><path class="cls-3" d="M113,173.17a2.62,2.62,0,0,1-.28.27,1.23,1.23,0,0,1-.44.16q-18.84,0-37.67,0c-.12,0-.24-.13-.52-.29a9.21,9.21,0,0,1,.77-.51c.92-.46,1.89-.86,2.78-1.38a13.9,13.9,0,0,0,7.22-11.74,20.91,20.91,0,0,0-.2-4.54c-1.33-8.36-2.72-16.72-4.11-25.08q-2.81-16.8-5.65-33.59c-.09-.54-.25-1.07-.33-1.45a2.71,2.71,0,0,0-.32-.28A.48.48,0,0,0,74,94.7l-17.75-.07c-.55,0-1.11,0-1.67.05a2.46,2.46,0,0,0-.58.23,11,11,0,0,0-.18,1.28c0,.72,0,1.44,0,2.16v76.16c-3,1.91-6.1,3.56-9.12,5.32s-6.09,3.53-9.15,5.27-6,3.52-8.91,5.1c-.36-.22-.45-.25-.49-.31a.43.43,0,0,1-.06-.22,3.91,3.91,0,0,1-.05-.48c0-.4,0-.8,0-1.2q0-82.19,0-164.38a3.89,3.89,0,0,0,0-.47c0-.08,0-.16-.13-.49C24,21.39,21.77,20.26,19.65,19s-4.27-2.48-6.36-3.69c.07-.73.55-.61.89-.63.72,0,1.44,0,2.16,0H79c4.88,0,9.76.12,14.64.07a10.22,10.22,0,0,1,8.22,3.74,18.44,18.44,0,0,1,4.91,12.42c0,12.64,0,25.28,0,37.92v2a5.85,5.85,0,0,1-2.07,1.84c-4,2.87-7.92,5.7-11.87,8.56-.57.41-1.08.88-1.75,1.43.52.41.86.71,1.24,1,1.86,1.24,3.69,2.54,5.62,3.68a3.64,3.64,0,0,1,1.85,2.86c.65,4.27,1.35,8.53,2,12.79q2.31,14.2,4.61,28.41,1.77,11,3.53,22L112.59,170A31.8,31.8,0,0,1,113,173.17ZM69.2,48.19l.22,0c.06,1.17.1,2.34.19,3.5a18.66,18.66,0,0,0,1.76,6.92,9.87,9.87,0,0,0,8.3,5.69,9.65,9.65,0,0,0,1.47-.07c.06-.68.14-1.22.15-1.77,0-1.44,0-2.88,0-4.31q0-12.36,0-24.7a5.81,5.81,0,0,0-.26-2.6,6.7,6.7,0,0,0-1-.14q-12.47,0-24.93,0a6.28,6.28,0,0,0-1.2.25c0,1-.07,1.85-.07,2.71q0,11.27,0,22.54,0,9.95,0,19.9a4,4,0,0,0,.29,2.32,2.58,2.58,0,0,0,.7.2c5.35,0,10.71,0,16.06,0a3.43,3.43,0,0,0,.93-.32c-.06-.48-.1-.87-.16-1.25-.72-4.42-1.38-8.84-2.2-13.24a51.54,51.54,0,0,1-.71-13.12A24.38,24.38,0,0,1,69.2,48.19Z" transform="translate(-11.7 -12.76)"/></svg>