<svg id="Layer_3" data-name="Layer 3" xmlns="http://www.w3.org/2000/svg" viewBox="0 0 27 27"><defs><style>.cls-1{fill:#fff;}</style></defs><title>instagram</title><path class="cls-1" d="M9.31,1V7.7H8.25V1H7.33V7.7H6.27V1.31l-.69.18V7.7H4.5l0-5.62A6.62,6.62,0,0,0,2.28,5.74c0,2.09-.07,4.15-.07,4.15h8.56a7.73,7.73,0,0,1,4.89-2,7.66,7.66,0,0,1,4.88,2h8.64v-4a6.24,6.24,0,0,0-1.66-3.29,6.56,6.56,0,0,0-3-1.59Z" transform="translate(-2.21 -1.02)"/><path class="cls-1" d="M2.21,10.78V23.12a7.54,7.54,0,0,0,1.43,3.2,7.1,7.1,0,0,0,3,1.7h18a5.18,5.18,0,0,0,2.71-1.35A5.73,5.73,0,0,0,29,23.79l.2-13h-7.9a8.32,8.32,0,0,1,1.22,3.74A7.13,7.13,0,0,1,20,20a7,7,0,0,1-6,1.29,6.78,6.78,0,0,1-4.36-3.52,6.56,6.56,0,0,1-.67-4.32A5.66,5.66,0,0,1,10,10.78Z" transform="translate(-2.21 -1.02)"/><path class="cls-1" d="M15.72,9.39A5.28,5.28,0,1,0,21,14.67,5.29,5.29,0,0,0,15.72,9.39Zm0,9.2a3.92,3.92,0,1,1,3.94-3.92A3.92,3.92,0,0,1,15.72,18.59Z" transform="translate(-2.21 -1.02)"/></svg>